:FULLY-SPECIFIED
:FORCE-ALL-JOINTS-BE-3DOF
:DEGREES
272
root 8.31226 16.2039 -25.2124 21.1609 69.0892 18.7019
lfemur -24.7123 7.38409 -22.9057
ltibia 40.5417 -0 0
lfoot -5.56639 -21.3094 -0.0331075
ltoes 64.9675 -0 0
rfemur -53.491 -6.05959 13.1772
rtibia 85.7318 -0 0
rfoot 8.38116 -0.375622 -0.0104716
rtoes 0.346417 -0 0
lowerback 6.5309 -4.35916 -2.5306
upperback 1.39258 -5.98561 -1.8711
thorax -2.15693 -2.95265 -0.0210612
lowerneck -5.32437 -11.1495 -4.66483
upperneck 0.646503 -14.7168 5.28354
head 1.90147 -7.27062 1.8927
lclavicle -5.79457e-14 -5.1684e-15 0
lhumerus -44.8657 -35.1983 107.182
lradius 59.1126 -0 0
lwrist 20.2982 0 0
lhand 19.0183 14.6734 0.0105516
lfingers 7.12502 -0 0
lthumb 43.6167 38.6754 0.00304349
rclavicle -5.79457e-14 -5.1684e-15 0
rhumerus -53.7376 3.0276 -95.2786
rradius 43.2419 -0 0
rwrist 25.2088 0 0
rhand -21.3597 1.09892 -0.103382
rfingers 7.12502 -0 0
rthumb 5.02496 -28.7788 -0.0876222
273
root 8.37489 16.1786 -25.1715 22.1398 69.92 20.1441
lfemur -24.212 7.03263 -23.0068
ltibia 40.8952 0 0
lfoot -5.53562 -21.855 0
ltoes 64.8167 0 0
rfemur -54.2541 -6.08349 13.9488
rtibia 85.0913 0 0
rfoot 7.93935 -1.17859 0
rtoes 2.09714 0 0
lowerback 6.64142 -4.45719 -2.62742
upperback 1.55634 -6.11698 -2.05645
thorax -2.05138 -3.02007 -0.150032
lowerneck -5.10397 -11.2605 -4.78472
upperneck 0.640157 -14.874 5.49624
head 1.89709 -7.34906 1.98006
lclavicle 3.74445e-14 1.13618e-14 0
lhumerus -44.6221 -35.4023 106.763
lradius 59.0777 0 0
lwrist 20.1788 0 0
lhand 19.3236 14.7781 0
lfingers 7.12502 0 0
lthumb 43.9045 38.6965 0
rclavicle 3.74445e-14 1.13618e-14 0
rhumerus -54.5351 3.57056 -96.3508
rradius 44.5197 0 0
rwrist 24.49 0 0
rhand -22.4508 1.21931 0
rfingers 7.12502 0 0
rthumb 3.97343 -748.723 0
274
root 8.44234 16.1483 -25.1277 23.1908 70.7652 21.7252
lfemur -23.6594 6.74153 -23.0876
ltibia 41.3469 -0 0
lfoot -5.63072 -22.4752 0.0396494
ltoes 64.6074 -0 0
rfemur -54.6143 -5.97364 14.599
rtibia 84.1456 -0 0
rfoot 7.6341 -2.12881 -0.00235789
rtoes 4.07033 -0 0
lowerback 6.73432 -4.55391 -2.76424
upperback 1.73011 -6.24682 -2.2297
thorax -1.92068 -3.08663 -0.247555
lowerneck -4.88414 -11.3774 -4.91322
upperneck 0.69171 -15.0402 5.68229
head 1.91175 -7.43251 2.0587
lclavicle 3.74445e-14 1.13618e-14 0
lhumerus -44.3976 -35.6593 106.4
lradius 59.07 -0 0
lwrist 20.0125 0 0
lhand 19.5457 14.8394 -0.00837559
lfingers 7.12502 -0 0
lthumb 44.1141 38.699 -0.00200954
rclavicle 3.74445e-14 1.13618e-14 0
rhumerus -55.4028 4.124 -97.2768
rradius 45.8214 -0 0
rwrist 23.9531 0 0
rhand -23.3861 1.17769 0.0848364
rfingers 7.12502 -0 0
rthumb 3.07172 -28.8135 0.0719719
275
root 8.51541 16.1111 -25.0801 24.372 71.6545 23.5145
lfemur -23.0525 6.49662 -23.1372
ltibia 41.9281 -0 0
lfoot -5.84586 -23.1646 0.0815472
ltoes 64.242 -0 0
rfemur -54.5987 -5.73211 15.1585
rtibia 82.8007 -0 0
rfoot 7.32184 -3.33838 -0.00748649
rtoes 6.48946 -0 0
lowerback 6.80773 -4.65767 -2.93114
upperback 1.91901 -6.38519 -2.39636
thorax -1.75926 -3.15746 -0.324463
lowerneck -4.65128 -11.4982 -5.05644
upperneck 0.804855 -15.2136 5.84623
head 1.94581 -7.52023 2.13179
lclavicle 3.74445e-14 1.13618e-14 0
lhumerus -44.1902 -35.9745 106.087
lradius 59.0914 -0 0
lwrist 19.7841 0 0
lhand 19.6999 14.8687 -0.0149297
lfingers 7.12502 -0 0
lthumb 44.2598 38.689 -0.00351036
rclavicle 3.74445e-14 1.13618e-14 0
rhumerus -56.3628 4.60421 -98.1198
rradius 47.2908 -0 0
rwrist 23.4196 0 0
rhand -24.3211 0.964074 0.163372
rfingers 7.12502 -0 0
rthumb 2.17007 -29.069 0.138714
276
root 8.59295 16.0681 -25.0293 25.702 72.568 25.5167
lfemur -22.4017 6.29703 -23.1581
ltibia 42.6204 -0 0
lfoot -6.16669 -23.9099 0.122608
ltoes 63.7424 -0 0
rfemur -54.2532 -5.38627 15.642
rtibia 81.1121 -0 0
rfoot 7.00922 -4.75945 -0.0173241
rtoes 9.27961 -0 0
lowerback 6.86444 -4.76638 -3.12444
upperback 2.12048 -6.52937 -2.55651
thorax -1.57184 -3.23123 -0.382499
lowerneck -4.4091 -11.6209 -5.21073
upperneck 0.970027 -15.3919 5.99052
head 1.99631 -7.61081 2.19972
lclavicle 3.74445e-14 1.13618e-14 0
lhumerus -43.9983 -36.3395 105.819
lradius 59.138 -0 0
lwrist 19.504 0 0
lhand 19.792 14.8689 -0.01964
lfingers 7.12502 -0 0
lthumb 44.3471 38.6677 -0.00450555
rclavicle 3.74445e-14 1.13618e-14 0
rhumerus -57.3954 5.0333 -98.8822
rradius 48.9035 -0 0
rwrist 22.8892 0 0
rhand -25.2417 0.600037 0.231182
rfingers 7.12502 -0 0
rthumb 1.28195 -29.4681 0.19608
277
root 8.67377 16.0202 -24.9757 27.1969 73.4859 27.7334
lfemur -21.7175 6.1419 -23.1526
ltibia 43.4052 -0 0
lfoot -6.57879 -24.6978 0.15992
ltoes 63.1303 -0 0
rfemur -53.6247 -4.96138 16.0657
rtibia 79.1352 -0 0
rfoot 6.70299 -6.34418 -0.0329932
rtoes 12.3659 -0 0
lowerback 6.90717 -4.87796 -3.34048
upperback 2.33195 -6.67668 -2.71023
thorax -1.36311 -3.30664 -0.423393
lowerneck -4.16136 -11.7438 -5.37245
upperneck 1.17765 -15.5724 6.11771
head 2.0603 -7.7028 2.26291
lclavicle 3.74445e-14 1.13618e-14 0
lhumerus -43.8206 -36.7455 105.589
lradius 59.2061 -0 0
lwrist 19.1831 0 0
lhand 19.8278 14.8432 -0.0225948
lfingers 7.12502 -0 0
lthumb 44.3814 38.6365 -0.0050353
rclavicle 3.74445e-14 1.13618e-14 0
rhumerus -58.4815 5.43414 -99.567
rradius 50.635 -0 0
rwrist 22.3611 0 0
rhand -26.1341 0.10728 0.284787
rfingers 7.12502 -0 0
rthumb 0.420968 -29.9892 0.240852
278
root 8.75672 15.9685 -24.9199 28.8668 74.3888 30.1612
lfemur -21.0102 6.03036 -23.1227
ltibia 44.2639 -0 0
lfoot -7.06766 -25.5149 0.190923
ltoes 62.4273 -0 0
rfemur -52.7604 -4.48132 16.4457
rtibia 76.9254 -0 0
rfoot 6.40987 -8.04471 -0.0547032
rtoes 15.6734 -0 0
lowerback 6.93868 -4.99034 -3.57558
upperback 2.5508 -6.82444 -2.85754
thorax -1.13777 -3.38244 -0.448854
lowerneck -3.91184 -11.8649 -5.53789
upperneck 1.41814 -15.7526 6.2304
head 2.13483 -7.79477 2.32175
lclavicle 3.74445e-14 1.13618e-14 0
lhumerus -43.6558 -37.184 105.39
lradius 59.2919 -0 0
lwrist 18.8318 0 0
lhand 19.813 14.7946 -0.0239634
lfingers 7.12502 -0 0
lthumb 44.368 38.5968 -0.00516533
rclavicle 3.74445e-14 1.13618e-14 0
rhumerus -59.6031 5.83012 -100.177
rradius 52.4607 -0 0
rwrist 21.835 0 0
rhand -26.9839 -0.49243 0.321791
rfingers 7.12502 -0 0
rthumb -0.399154 -30.6108 0.270851
279
root 8.84061 15.9139 -24.8624 30.7123 75.2576 32.7869
lfemur -20.2899 5.96157 -23.0703
ltibia 45.1779 -0 0
lfoot -7.61871 -26.3477 0.213555
ltoes 61.6552 -0 0
rfemur -51.7077 -3.9691 16.7978
rtibia 74.5384 -0 0
rfoot 6.13659 -9.81318 -0.0817101
rtoes 19.1272 -0 0
lowerback 6.96164 -5.10144 -3.82607
upperback 2.77443 -6.96999 -2.99846
thorax -0.900537 -3.45733 -0.460569
lowerneck -3.66436 -11.9824 -5.70332
upperneck 1.68185 -15.9297 6.33129
head 2.21694 -7.88526 2.37669
lclavicle 3.74445e-14 1.13618e-14 0
lhumerus -43.5028 -37.6463 105.217
lradius 59.3916 -0 0
lwrist 18.4609 0 0
lhand 19.7533 14.726 -0.0239701
lfingers 7.12502 -0 0
lthumb 44.3124 38.5499 -0.00497655
rclavicle 3.74445e-14 1.13618e-14 0
rhumerus -60.7426 6.24504 -100.717
rradius 54.3561 -0 0
rwrist 21.3103 0 0
rhand -27.777 -1.1773 0.340958
rfingers 7.12502 -0 0
rthumb -1.16458 -31.3111 0.285017
280
root 8.92429 15.8575 -24.8039 32.7195 76.0744 35.5828
lfemur -19.5668 5.93475 -22.9976
ltibia 46.1288 -0 0
lfoot -8.21734 -27.1828 0.226361
ltoes 60.8357 -0 0
rfemur -50.5138 -3.44729 17.1365
rtibia 72.0294 -0 0
rfoot 5.88974 -11.6018 -0.112334
rtoes 22.6524 -0 0
lowerback 6.97873 -5.20917 -4.08831
upperback 3.00019 -7.11069 -3.13294
thorax -0.656097 -3.53006 -0.460202
lowerneck -3.42277 -12.0946 -5.86496
upperneck 1.95914 -16.101 6.42316
head 2.30369 -7.97283 2.42816
lclavicle 3.74445e-14 1.13618e-14 0
lhumerus -43.3606 -38.1235 105.064
lradius 59.5013 -0 0
lwrist 18.081 0 0
lhand 19.6544 14.6405 -0.0228705
lfingers 7.12502 -0 0
lthumb 44.22 38.4972 -0.00455603
rclavicle 3.74445e-14 1.13618e-14 0
rhumerus -61.8831 6.70294 -101.192
rradius 56.2967 -0 0
rwrist 20.7865 0 0
rhand -28.4989 -1.92557 0.342243
rfingers 7.12502 -0 0
rthumb -1.8614 -32.0685 0.283423
281
root 9.00657 15.8003 -24.7448 34.8538 76.8229 38.501
lfemur -18.851 5.94919 -22.9064
ltibia 47.0979 -0 0
lfoot -8.84889 -28.0067 0.228573
ltoes 59.9905 -0 0
rfemur -49.2261 -2.93826 17.4747
rtibia 69.454 -0 0
rfoot 5.67581 -13.3627 -0.144036
rtoes 26.1741 -0 0
lowerback 6.99257 -5.31143 -4.35864
upperback 3.22544 -7.2439 -3.26092
thorax -0.40915 -3.59934 -0.449396
lowerneck -3.19096 -12.1998 -6.019
upperneck 2.24031 -16.2639 6.5089
head 2.39212 -8.05602 2.47661
lclavicle 3.74445e-14 1.13618e-14 0
lhumerus -43.2279 -38.6069 104.924
lradius 59.6174 -0 0
lwrist 17.7026 0 0
lhand 19.5222 14.5411 -0.0209312
lfingers 7.12502 -0 0
lthumb 44.0962 38.44 -0.00398927
rclavicle 3.74445e-14 1.13618e-14 0
rhumerus -63.0078 7.22799 -101.607
rradius 58.258 -0 0
rwrist 20.2631 0 0
rhand -29.1351 -2.71552 0.326759
rfingers 7.12502 -0 0
rthumb -2.47567 -32.8615 0.267242
